<?xml version="1.0" encoding="utf-8"?>
<!-- Generator: Adobe Illustrator 21.1.0, SVG Export Plug-In . SVG Version: 6.00 Build 0)  -->
<svg version="1.1" id="レイヤー_1" xmlns="http://www.w3.org/2000/svg" xmlns:xlink="http://www.w3.org/1999/xlink" x="0px"
	 y="0px" viewBox="0 0 300 300" style="enable-background:new 0 0 300 300;" xml:space="preserve">
<style type="text/css">
	.st0{fill:#FFFFFF;}
</style>
<circle cx="150.5" cy="149.5" r="149"/>
<path class="st0" d="M222,111.4c-1.5,2.5-3.5,5.2-6.1,8c-2,2.2-4.5,4.5-7.4,6.9v0.8v1c0,0.5,0,0.8,0.1,1v1c0,9.6-1.7,19.2-5.2,28.9
	c-3.4,9.7-8.4,18.3-14.7,26c-6.8,8.2-15.1,14.7-24.8,19.5c-9.7,4.8-20.6,7.1-32.6,7.1c-7.8,0-15.1-1.1-22-3.4
	c-7.1-2.2-13.6-5.4-19.6-9.5c0.4,0.1,0.9,0.1,1.6,0.1c1.4,0.2,2.5,0.3,3.2,0.3h1.7c6.2,0,12.3-1.1,18.2-3.2c5.5-2.1,10.7-5,15.5-9
	c-5.7-0.1-10.9-2.1-15.8-5.9c-4.8-3.7-8-8.4-9.6-14.1c1.3,0.3,2.2,0.4,2.5,0.4h1.3c0.3,0.1,0.7,0.1,1.2,0.1c0.8,0,1.4,0,1.9-0.1
	c0.9,0,2.1-0.2,3.7-0.6c0.2,0,0.4,0,0.8-0.1c0.4-0.1,0.6-0.1,0.8-0.1c-6.3-1.3-11.5-4.6-15.5-9.9c-4.2-5.3-6.2-11.4-6.2-18.2v-0.1
	V138v-0.1c1.7,1.1,3.6,2,5.8,2.5c2.3,0.7,4.5,1.1,6.5,1.1c-3.9-2.8-6.8-6.2-8.8-10.2c-2.2-4.1-3.3-8.7-3.3-13.7
	c0-2.8,0.3-5.3,0.9-7.6c0.4-1.6,1.2-3.9,2.7-6.9c6.9,9,15.1,16,24.7,21c9.8,5.4,20.3,8.4,31.3,9c-0.3-2-0.4-3-0.4-3.2
	c-0.2-1.3-0.3-2.4-0.3-3.2c0-7.9,2.7-14.7,8-20.3c5.3-5.6,11.7-8.4,19.2-8.4c3.9,0,7.6,0.8,11,2.4c3.4,1.8,6.4,4,8.9,6.7
	c2.8-0.7,5.8-1.6,9-2.8c2.7-1,5.4-2.4,8.2-4.2c-1.1,3.4-2.6,6.4-4.6,9.1c-2.3,2.8-4.7,5-7.3,6.7c2.7-0.5,5.3-1,8-1.7
	C216.5,113.7,219,112.7,222,111.4z"/>
</svg>
